<?xml version="1.0" encoding="utf-8"?>
<!-- Generator: Adobe Illustrator 22.1.0, SVG Export Plug-In . SVG Version: 6.00 Build 0)  -->
<svg version="1.1" id="Layer_1" xmlns="http://www.w3.org/2000/svg" xmlns:xlink="http://www.w3.org/1999/xlink" x="0px" y="0px"
	 viewBox="0 0 554 424.8" style="enable-background:new 0 0 554 424.8;" xml:space="preserve">
<style type="text/css">
	.st0{fill:#B2B2B2;}
</style>
<path class="st0" d="M74,387.2c3-0.4,9.1-2.3,13.5-4.3c4.4-2,11.9-6.6,16.8-10.3l8.8-6.8l7.1-9.7l7.1-9.7l6.1-15.8l6.1-15.8
	l-2.4-18.3l-2.4-18.3l-4.8-6.1c-2.6-3.4-4.9-7.1-5.1-8.2l-0.3-2l3.5,2.5c1.9,1.4,9.2,11.1,16.2,21.6l12.8,19.1l-5.7,6.4l-5.7,6.4
	l-0.5,6.2c-0.3,3.4-0.1,7.4,0.4,8.9c0.5,1.5,0.3,4.4-0.4,6.5l-1.3,3.9l4.6,2.3l4.6,2.3l5.4-1.8c3-1,9-2.9,13.5-4.3l8.1-2.5l2.3,1.9
	c1.3,1.1,3.4,4.8,4.7,8.2l2.5,6.3l9.5,6.5l9.5,6.5l8,0.4l8,0.4l10.9-3.6l10.9-3.6l11.8-9.6l11.8-9.6l7.5-12.8l7.5-12.8l3.5-11.6
	l3.5-11.6l-1.6-16.5l-1.6-16.5l-6-7.6l-6-7.6l-6.8-3.5l-6.8-3.5l-9.5,0.1l-9.5,0.1l-8,3.9l-8,3.9l-1.3-2.2c-0.7-1.2-2.8-6.2-4.8-11
	l-3.5-8.8l0.9-3.1c0.5-1.7,1.8-3.2,2.8-3.4l1.9-0.2l1.4-6.5l1.4-6.5l-0.1,5.4l-0.1,5.4l2.5-0.3c1.4-0.2,6.1-2.7,10.6-5.6l8.1-5.3
	l3.9-6l3.9-6l-1.8-13.5l-1.8-13.5l-4.7-2.3l-4.7-2.3l-3.9,5.2c-2.2,2.9-7.2,7.4-11.2,10l-7.2,4.8l-4.3,0.5l-4.3,0.5l5.5,4l5.5,4
	l2.8,5.8l2.8,5.8l-2,1.4l-2,1.4l0.1-1.6c0.1-0.9-0.2-3.2-0.6-5.2l-0.7-3.5l-8.1-5.5l-8.1-5.5l6.6-2.9l6.6-2.9l4.3-5.1l4.3-5.1
	l-3.7-0.8l-3.7-0.8l-0.9,3.1l-0.9,3.1l-8,4.7c-4.4,2.6-8.6,4.8-9.3,4.8c-0.7,0.1,1.2-2.3,4.3-5.2l5.6-5.3l-1.8-1.3l-1.8-1.3
	l-4.3,4.2l-4.3,4.2l1.1-5c0.6-2.8,0.7-7,0.2-9.5c-0.5-2.5-1.7-5.2-2.5-6.1c-0.8-0.9-2.4-1.5-3.5-1.4l-2,0.2l1.9,5.2l1.9,5.2
	l-1.5,11.9l-1.5,11.9l-9.2,1.6l-9.2,1.6l-1.6-11.6l-1.6-11.6l-2.2-0.9l-2.2-0.9l-0.9,4.1l-0.9,4.1l-6.2-3.3l-6.2-3.3l-4.5,0.5
	l-4.5,0.5l3.1-3.8c1.7-2.1,3.9-6.1,4.8-8.8l1.7-5l-0.5,5.4l-0.5,5.4l1.7-0.2c1-0.1,2.8-2.1,4-4.4l2.3-4.2l6.5,2.5l6.5,2.5l7.3-3.7
	l7.3-3.7l-7.1,0.6l-7.1,0.6l-6-1.6c-3.3-0.9-6.1-2.3-6.2-3.1c-0.1-0.8-1-2.8-2-4.4l-1.8-2.9l7.9-0.9l7.9-0.9l1.1-2.1l1.1-2.1l-9,1
	l-9,1l-0.7-5.4l-0.7-5.4l-5.1-3.7l-5.1-3.7l-8.9,1l-8.9,1l-6.1,3.6l-6.1,3.6l-4.8,7.1l-4.8,7.1l0.5,3.5l0.5,3.5l6.2,3.9l6.2,3.9
	l0.7,4.9l0.7,4.9l2.8-0.3l2.8-0.3l3.2,3.5l3.2,3.5l-3.9,2.4l-3.9,2.4l-5.4-3.9l-5.4-3.9l1-3.8l1-3.8l-2.3,2.4
	c-1.3,1.3-2.5,4.2-2.7,6.4c-0.2,2.3-2.4,7.9-4.9,12.5c-2.5,4.6-5.6,9.1-6.9,9.9c-1.3,0.9-4.8,5.5-7.9,10.3l-5.6,8.7l-8.8,4.9
	l-8.8,4.9l-4.2,9.1l-4.2,9.1l5.5,3l5.5,3l9-1.5l9-1.5l0.6-2.4l0.6-2.4l-2.9,0.3l-2.9,0.3l9.6-10.8c5.3-6,10.5-10.9,11.5-11
	c1-0.1,4.6,1.8,7.9,4.2l6,4.4l2-1.4l2-1.4l1.6,1.8l1.6,1.8l-4.8,9.8c-2.6,5.4-7,12.2-9.6,15.1l-4.8,5.2l-12.5,1.7l-12.5,1.7
	l-10.4,5.8l-10.4,5.8l-11.2,12.3L42,296.5l-6.2,15.2l-6.2,15.2l-0.8,13l-0.8,13L32,363l4.1,10.2l7.7,6.3l7.7,6.3l8.5,1.1
	C64.7,387.5,71,387.6,74,387.2L74,387.2z M72.4,381.5l-6.3,0.8l-9-3.2l-9-3.2l-5.2-7.5l-5.2-7.5l-1.6-13.6L34.6,334l3.5-11.8
	l3.5-11.8l8.7-13l8.7-13l9.9-7.4l9.9-7.4l8.2-3.1l8.2-3.1l5.8,0.6l5.8,0.6l-11.7,22.3c-6.4,12.3-13.8,24.8-16.4,27.8
	c-2.6,3-4.7,6.1-4.6,6.9c0.1,0.7,1.2,1.2,2.5,1.1l2.3-0.2l0.9-3.5c0.5-1.9,3.3-6.4,6.1-10c2.9-3.5,9.2-13.8,14.1-22.9
	c4.9-9,9.4-17.5,10.1-18.7l1.3-2.2l2.8,1.9l2.8,1.9l-7.7,21.4l-7.7,21.4l-5.8,6.1l-5.8,6.1l0.4,2.8l0.4,2.8l6.3-7.6l6.3-7.6
	l8.4-20.6c4.6-11.3,9.1-20.7,10-20.8c0.9-0.1,3.2,2.8,5.2,6.5l3.6,6.7l1,14.9l1,14.9l-5.1,13.1c-2.8,7.2-7.8,17.2-11,22.2l-5.9,9.1
	l-9.2,7.3c-5.1,4-12.3,8.6-16,10.3C81.8,379.3,75.9,381.1,72.4,381.5L72.4,381.5z M224.5,363l-5.2,0.7l-8.2-2.3L203,359l-3.8-3.9
	c-2.1-2.2-5.2-6.7-6.8-10.1c-1.6-3.4-2.8-6.4-2.5-6.6c0.3-0.3,9.9-2.1,21.4-4.1c11.5-2,21.7-4.2,22.7-4.8l1.7-1.2l-2-4.5l-2-4.5
	l0.7-5l0.7-5l8.9-1l8.9-1l-2.2-5c-1.2-2.8-6-15.1-10.7-27.5c-4.7-12.4-8.3-22.7-8-22.9c0.3-0.2,3.8-1.8,7.8-3.5
	c4-1.7,10-3.3,13.3-3.7l6-0.7l7.9,3.5l7.9,3.5l5.2,6.3l5.2,6.3l1.2,15.5l1.2,15.5l-4.2,13l-4.2,13l-7.7,11.2l-7.7,11.2l-10,7.2
	c-5.5,4-12.7,8.2-16,9.5C232.4,361.2,227.3,362.6,224.5,363L224.5,363z M190.4,335.3l-1.8,0.5l-0.3-7.3l-0.3-7.3l8.7-2.2
	c4.8-1.2,13.3-3.2,19-4.5l10.2-2.3l2.3,5.8l2.3,5.8l-2,2.2l-2,2.2l-17.2,3.3C199.9,333.3,191.3,335,190.4,335.3L190.4,335.3z
	 M177.2,337l-4.5,0.5l3-3.7l3-3.7l0.7-6.5l0.7-6.5l1.7,0.7l1.7,0.7l0.2,4.5c0.1,2.5-0.3,6.5-0.8,9l-1.1,4.5L177.2,337L177.2,337z
	 M150.8,332c-0.4,0-1.1-2.1-1.4-4.7l-0.7-4.8l4.4-0.5l4.4-0.5l0.2,1.3c0.1,0.7-1.3,3.1-3,5.2C153,330.2,151.2,332,150.8,332
	L150.8,332z M195.1,315.1l-5.6,0.7l15.9-5.6l15.9-5.6l1.3,0.9l1.4,0.9l-1.1,1.2c-0.6,0.7-5.9,2.5-11.7,4
	C205.4,313.2,198.2,314.7,195.1,315.1L195.1,315.1z M160.2,319.3c-2.1,0.2-5.3-0.2-6.9-0.9l-3-1.2l4.1-4.1l4.1-4.1l2.4,2.6
	c1.3,1.4,2.6,3.7,2.8,5l0.4,2.4L160.2,319.3L160.2,319.3z M182.9,314.8c-0.5,0.1-1.6-1.5-2.4-3.4l-1.6-3.5l1.6-2.8l1.6-2.8l0.9,6.3
	C183.4,311.9,183.4,314.8,182.9,314.8L182.9,314.8z M235.7,307.1c-0.2,0-0.2-2.1,0-4.7l0.4-4.7l-4-4.2l-4-4.2l-3.6-15.5l-3.6-15.5
	l2.1-1.5l2.1-1.5l1.6,3.3c0.9,1.8,5,12.1,9.2,22.8l7.6,19.6l-3.7,3C237.7,305.7,235.9,307.1,235.7,307.1L235.7,307.1z M170.6,311.2
	c-1.9-1.8-3.6-3.9-3.7-4.8l-0.2-1.6l4.1-0.5l4.1-0.5l-0.4,5.2l-0.4,5.3L170.6,311.2L170.6,311.2z M193.8,309.5l-3.9,0.6l-0.3-2.6
	l-0.3-2.6l8.3-3.2c4.6-1.7,11.9-3.6,16.4-4.1l8.1-0.9l0.3,1.9l0.3,1.9l-8.1,2.8c-4.4,1.5-10,3.4-12.4,4.1
	C199.6,308.3,195.9,309.2,193.8,309.5L193.8,309.5z M213.1,295.9l-13.6,1.5l-0.3-1.9l-0.3-1.9l8.4-6l8.4-6l-2.4-7.1l-2.4-7.1
	l2.9-2.7l2.9-2.7l2.3,7.2c1.2,3.9,3.4,11.2,4.9,16.2l2.7,9L213.1,295.9L213.1,295.9z M164.8,301.2l-2.2,0.2l-11.7-16.7L139.1,268
	l2.6-1.8c1.4-1,4.4-2.1,6.7-2.3l4.1-0.5l-1.7-2.8l-1.7-2.8l7.7-5.4c4.2-3,13.6-9,20.9-13.4l13.3-8l2.5-4.4l2.5-4.4l0.9-16.6
	l0.9-16.6l0.9,4.6c0.5,2.6,0.5,10.3,0,17.2l-0.8,12.6l-4.4,5.8l-4.4,5.8l-16.7,10.6l-16.7,10.6l2.7,20.3l2.7,20.3l3,2l3,2
	L164.8,301.2L164.8,301.2z M182.3,283.6c-0.4,0-0.4-1.6,0.1-3.6l0.8-3.7l-3.5-11.8l-3.5-11.8l4.3-3.4l4.3-3.4l4,8.3l4,8.3l-0.6,8.5
	l-4.6,6.2C185.1,280.7,182.7,283.6,182.3,283.6L182.3,283.6z M207.5,253.4l-1.7-7.4l2.3-4.7l2.3-4.7l2.6,9.5l2.6,9.5l-3.2,2.7
	l-3.2,2.7L207.5,253.4L207.5,253.4z M221,252l-2.2,0.2l-2.6-8.8c-1.4-4.8-2.8-10.6-3.1-12.9l-0.5-4.1l2.4,2.8
	c1.3,1.5,3.7,7.2,5.3,12.6l2.9,9.9L221,252L221,252z M117.9,261.3l-2.2,0.2l-0.3-2l-0.3-2l2.4,0.9c1.3,0.5,2.4,1.3,2.5,1.8
	C120.1,260.7,119.1,261.2,117.9,261.3L117.9,261.3z M135,249.6l-2.8,0.3l-0.2-1.8c-0.1-1,2-4.3,4.7-7.4l5-5.5l8.3-0.9l8.3-0.9
	l2.4-2.6c1.3-1.4,2.3-3.2,2.2-4l-0.2-1.4l-8.8,2l-8.8,2l-3.7-3.3l-3.7-3.3l0.5-4.4l0.5-4.4l-6.2,1.8l-6.2,1.8l-7.3-2.3l-7.3-2.3
	l5.8-10.8c3.2-6,9.1-14.5,13.1-19l7.4-8.2l7.5-0.8l7.5-0.8l8.1,3.6l8.1,3.6l2.4,7.3l2.4,7.3l-1.1,5.2l-1.1,5.2l-0.7-3.6l-0.7-3.6
	l-3.2,3l-3.2,3l2.5,9.8l2.5,9.8l-6.2,6.6c-3.4,3.7-10.4,9.3-15.6,12.7C141.9,246.6,136.5,249.4,135,249.6L135,249.6z M205,230.3
	c-0.5,0.1-1.1-0.8-1.2-1.8l-0.3-1.9l2.4-0.3l2.4-0.3l-1.1,2.1C206.4,229.2,205.5,230.2,205,230.3L205,230.3z M173.8,218.5l-1.4-2.3
	l0.8-2.5l0.8-2.5l0.7,4.8l0.7,4.8L173.8,218.5L173.8,218.5z M74.8,230.5c-0.9,0.2-1.8-0.4-1.9-1.5c-0.1-1,2.1-3.6,4.9-5.7
	c2.9-2.1,5.7-3.4,6.4-3c0.7,0.5,0.8,2.3,0.3,4l-0.9,3.2l-3.6,1.3C78.1,229.6,75.7,230.3,74.8,230.5L74.8,230.5z M173.1,210.3
	c-0.6,0.1-1.2-0.3-1.2-0.8c-0.1-0.5,0.4-1,1-1.1c0.6-0.1,1.2,0.3,1.2,0.8C174.1,209.7,173.7,210.2,173.1,210.3L173.1,210.3z
	 M202.7,187.5l-3,0.3l1.3-1.4l1.3-1.4l1.7,1.1l1.7,1.1L202.7,187.5L202.7,187.5z M153.4,147.9c-0.6,0.1-1.2-0.3-1.2-0.8
	c-0.1-0.5,0.4-1,1-1.1c0.6-0.1,1.2,0.3,1.2,0.8C154.4,147.3,154,147.8,153.4,147.9L153.4,147.9z M124.4,140.7l-1.2-2l7.2-7.3
	l7.2-7.3l5-0.5l5-0.5l-7.7,4.7l-7.7,4.7l-3.4,5.1l-3.4,5.1L124.4,140.7L124.4,140.7z M140,139.5l-3.6,0.3l6-5.4c3.3-3,6.5-5,7.1-4.6
	c0.6,0.4-0.5,2.7-2.4,5.1l-3.5,4.3L140,139.5L140,139.5z M299.9,360.3c8.2-1.1,19.9-3.1,25.9-4.4l10.9-2.4l-26.2,2.5l-26.2,2.5
	l0.3,1.9l0.3,1.9L299.9,360.3L299.9,360.3z M110.4,381c8.6-0.9,18.5-2.6,22.1-3.7l6.5-2l50.2-14.2L132,373.8l-18.6,4.4l-112,21.5
	L110.4,381L110.4,381z M267.7,359.7l26-3.8l10.5-1.7l-0.2-1.8l-0.2-1.8l-3.9,0.5c-2.1,0.3-13.7,2.8-25.8,5.6l-21.9,5L267.7,359.7
	L267.7,359.7z M237.5,162.2c0.9-0.1,2.1-0.7,2.8-1.4l1.1-1.3l-5.3-6.6l-5.3-6.6l-7.6-2.8c-4.2-1.6-12.5-3.4-18.5-4.1l-10.9-1.3
	l0.2,1.4c0.1,0.8,4.1,2.1,8.9,3c4.8,0.9,12.9,3.5,18,5.7l9.3,4.1l2.9,5.1C234.5,160,236.6,162.3,237.5,162.2L237.5,162.2z"/>
<g transform="translate(-66.961 -53.28)">
</g>
<path d="M195,400c4.5-0.6,13.3-3.5,19.8-6.4c6.4-2.9,17.5-9.7,24.7-15.1l13.1-9.9l10.6-14l10.6-14l9.2-22.7l9.2-22.7l-3-26l-3-26
	l-6.8-8.6c-3.8-4.7-7-9.9-7.2-11.5l-0.4-2.9l5,3.5c2.7,1.9,13.2,15.6,23.2,30.3l18.2,26.9l-8.4,9.3l-8.4,9.3l-0.9,8.9
	c-0.5,4.9-0.3,10.6,0.4,12.7c0.7,2.1,0.3,6.3-0.8,9.3l-2,5.5l6.7,3.1l6.7,3.1l7.9-2.6c4.4-1.5,13.3-4.3,19.8-6.4l11.9-3.7l3.3,2.7
	c1.8,1.5,4.8,6.7,6.7,11.6l3.5,8.9l13.8,9l13.8,9l11.7,0.4l11.7,0.4l16-5.3l16-5.3l17.4-14l17.4-14l11.3-18.4l11.3-18.4l5.3-16.6
	l5.3-16.6l-1.9-23.4l-1.9-23.4l-8.6-10.6l-8.6-10.6l-9.9-4.8l-9.9-4.8l-13.8,0.4l-13.8,0.4l-11.7,5.8l-11.7,5.8l-1.8-3.2
	c-1-1.7-4-8.8-6.7-15.6l-4.9-12.4l1.4-4.5c0.8-2.5,2.7-4.7,4.2-4.8l2.8-0.3l2.2-9.3l2.2-9.3l-0.2,7.7l-0.2,7.7l3.6-0.5
	c2-0.3,9-3.9,15.5-8.2l11.9-7.7l5.9-8.6l5.9-8.6l-2.3-19.2l-2.3-19.2l-6.8-3.1l-6.8-3.1l-5.8,7.5c-3.2,4.1-10.6,10.7-16.5,14.5
	l-10.7,7.1l-6.2,0.8l-6.2,0.8l7.9,5.5l7.9,5.5l4,8.3l4,8.3l-2.9,2l-2.9,2l0.2-2.3c0.1-1.3-0.3-4.6-0.8-7.3l-1-5l-11.7-7.7l-11.7-7.7
	l9.7-4.3l9.7-4.3l6.4-7.4l6.4-7.4l-5.4-1l-5.4-1l-1.4,4.4l-1.4,4.4L401.6,97c-6.5,3.8-12.7,7-13.7,7.1c-1.1,0.1,1.8-3.2,6.4-7.5
	l8.3-7.7l-2.7-1.7l-2.7-1.7l-6.3,6.1l-6.3,6.1l1.8-7.2c1-3.9,1.2-10,0.4-13.5c-0.7-3.5-2.3-7.4-3.5-8.6c-1.2-1.2-3.5-2.1-5.1-1.9
	l-3,0.4l2.6,7.3l2.6,7.3l-2.5,17l-2.5,17l-13.5,2.5l-13.5,2.5l-2-16.4l-2-16.4l-3.2-1.2l-3.2-1.2l-1.4,5.8l-1.4,5.8l-9-4.5l-9-4.5
	l-6.6,0.8l-6.6,0.8l4.6-5.5c2.5-3,5.8-8.7,7.3-12.7l2.7-7.2l-0.8,7.7l-0.8,7.7l2.5-0.3c1.4-0.2,4.1-3,6-6.4l3.4-6.1l9.5,3.4l9.5,3.4
	l10.7-5.5l10.7-5.5l-10.4,1l-10.4,1l-8.7-2.2c-4.8-1.2-8.8-3.1-8.9-4.2c-0.1-1.1-1.4-3.9-2.8-6.2l-2.5-4.1l11.5-1.4l11.5-1.4l1.7-3
	l1.7-3l-13.2,1.6l-13.2,1.6l-0.9-7.7l-0.9-7.7l-7.4-5.2l-7.4-5.2l-13,1.6l-13,1.6l-8.9,5.3l-8.9,5.3l-7.2,10.2l-7.2,10.2l0.6,4.9
	l0.6,4.9l8.9,5.4l8.9,5.4l0.9,7l0.9,7l4.1-0.5L280,84l4.7,4.9l4.7,4.9l-5.7,3.5l-5.7,3.5l-7.8-5.5l-7.8-5.5l1.6-5.5l1.6-5.5
	l-3.4,3.4c-1.9,1.9-3.7,6-4,9.2c-0.3,3.2-3.7,11.2-7.5,17.9c-3.8,6.6-8.4,13.1-10.3,14.3c-1.9,1.3-7.1,8-11.7,14.8l-8.3,12.5
	l-12.9,7.2l-12.9,7.2l-6.4,13l-6.4,13l7.9,4.1l7.9,4.1l13.2-2.4l13.2-2.4l0.9-3.5l0.9-3.5l-4.2,0.5l-4.2,0.5l14.3-15.7
	c7.9-8.6,15.5-15.8,17-16c1.5-0.2,6.6,2.4,11.4,5.8l8.7,6.1l3-2.1l3-2.1l2.3,2.5l2.3,2.5l-7.2,14.1c-4,7.8-10.4,17.5-14.4,21.7
	l-7.2,7.6l-18.2,2.7l-18.2,2.7l-15.3,8.5l-15.3,8.5l-16.6,17.8l-16.6,17.8l-9.4,21.8l-9.4,21.8l-1.5,18.5l-1.5,18.5l5.8,14.4
	l5.8,14.4l11,8.8l11,8.8l12.4,1.3C181.4,400.6,190.6,400.7,195,400L195,400z M192.8,391.9l-9.3,1.3l-13-4.3l-13-4.3l-7.4-10.5
	l-7.4-10.5l-2-19.3l-2-19.3l5.3-16.8l5.3-16.8l13.1-18.8l13.1-18.8l14.6-10.8l14.6-10.8l12-4.6l12-4.6l8.4,0.7l8.4,0.7l-17.5,32
	c-9.6,17.6-20.7,35.6-24.6,40c-3.9,4.4-6.9,8.8-6.8,9.9c0.1,1,1.7,1.7,3.6,1.5l3.3-0.4l1.4-5c0.8-2.8,4.9-9.2,9.2-14.3
	c4.3-5.1,13.7-19.9,21-32.9c7.3-13,14.1-25.1,15.2-26.9l1.9-3.2l4.1,2.7l4.1,2.7L248.9,261l-11.7,30.6l-8.5,8.8l-8.5,8.8l0.5,3.9
	l0.5,3.9l9.4-11l9.4-11l12.7-29.6c7-16.3,13.8-29.7,15-29.8c1.3-0.2,4.6,4,7.4,9.2l5.1,9.5l1.1,21.3l1.1,21.3l-7.7,18.8
	c-4.3,10.3-11.7,24.7-16.6,31.8l-8.8,13l-13.6,10.6c-7.5,5.8-18.1,12.6-23.6,15C206.6,388.6,197.9,391.2,192.8,391.9L192.8,391.9z
	 M414.9,362l-7.6,1.2l-11.8-3.1l-11.8-3.1l-5.5-5.5c-3-3-7.4-9.4-9.7-14.2c-2.3-4.8-3.9-9-3.5-9.4c0.4-0.4,14.5-3.3,31.3-6.4
	c16.8-3.1,31.7-6.5,33.1-7.4l2.5-1.7l-2.7-6.3l-2.7-6.3l1.2-7.1l1.2-7.1l13-1.6l13-1.6l-3.1-7.1c-1.7-3.9-8.5-21.4-15-38.9
	s-11.6-32.1-11.2-32.5c0.4-0.3,5.6-2.6,11.4-5.1c5.9-2.5,14.6-5,19.4-5.6l8.8-1.1l11.5,4.9l11.5,4.9l7.4,8.8l7.4,8.8l1.3,22.1
	l1.3,22.1l-6.4,18.6l-6.4,18.6l-11.5,16.2L469.7,333l-14.8,10.5c-8.1,5.8-18.7,12-23.6,13.9C426.5,359.3,419.1,361.3,414.9,362
	L414.9,362z M365.9,323.3l-2.6,0.7l-0.2-10.3l-0.2-10.3l12.8-3.3c7-1.8,19.5-4.9,27.8-6.9l15-3.5l3.2,8.1l3.2,8.1l-3,3.2l-3,3.2
	l-25.2,5.2C379.8,320.3,367.3,323,365.9,323.3L365.9,323.3z M346.6,326.1l-6.6,0.8l4.4-5.4l4.4-5.4l1.2-9.2l1.2-9.2l2.5,0.9l2.5,0.9
	l0.2,6.4c0.1,3.5-0.5,9.3-1.4,12.9l-1.6,6.5L346.6,326.1L346.6,326.1z M308.3,319.7c-0.6,0.1-1.5-2.9-2-6.7l-0.8-6.8l6.5-0.8
	l6.5-0.8l0.2,1.8c0.1,1-1.9,4.4-4.5,7.5C311.5,317,308.9,319.6,308.3,319.7L308.3,319.7z M373.2,294.4l-8.1,1.1l23.3-8.3l23.3-8.3
	l1.9,1.3l1.9,1.3l-1.7,1.8c-0.9,1-8.6,3.7-17.1,5.9C388.3,291.5,377.7,293.9,373.2,294.4L373.2,294.4z M322.2,301.2
	c-3.1,0.4-7.7-0.1-10.1-1.1l-4.4-1.7l6.1-6l6.1-6l3.5,3.6c1.9,2,3.7,5.2,4,7.1l0.5,3.4L322.2,301.2L322.2,301.2z M355.5,294.4
	c-0.7,0.1-2.3-2.1-3.5-4.8l-2.2-5l2.3-4.1l2.3-4.1l1.1,8.9C356.2,290.3,356.2,294.3,355.5,294.4z M432.5,282.2c-0.3,0-0.2-3,0.1-6.7
	l0.7-6.7l-5.7-5.9l-5.7-5.9l-5-22l-5-22l3.1-2.1l3.1-2.1l2.2,4.6c1.2,2.6,7,17.1,12.8,32.3l10.6,27.7l-5.5,4.4
	C435.5,280.2,432.8,282.2,432.5,282.2L432.5,282.2z M337.6,289.6c-2.8-2.5-5.1-5.5-5.3-6.7l-0.3-2.2l6-0.7l6-0.7l-0.8,7.5l-0.8,7.5
	L337.6,289.6L337.6,289.6z M371.5,286.6l-5.6,1l-0.4-3.7l-0.4-3.7l12.2-4.7c6.7-2.6,17.5-5.4,24-6.2l11.8-1.4l0.3,2.6l0.3,2.6
	l-11.9,4.1c-6.5,2.3-14.7,5.1-18.2,6.2C379.9,284.6,374.6,286,371.5,286.6z M399.9,266.7l-19.8,2.4l-0.3-2.7l-0.3-2.7l12.4-8.7
	l12.4-8.7l-3.3-10.1l-3.3-10.1l4.3-3.9l4.3-3.9l3.1,10.2c1.7,5.6,4.8,15.9,6.8,22.9l3.7,12.8L399.9,266.7z M329.3,275.4l-3.3,0.4
	l-16.7-23.5l-16.7-23.5l3.8-2.7c2.1-1.5,6.5-3,9.8-3.5l6-0.8l-2.4-3.9l-2.4-3.9l11.3-7.8c6.2-4.3,20.1-13.1,30.8-19.6l19.5-11.7
	l3.8-6.3l3.8-6.3l1.8-23.7l1.8-23.7l1.1,6.6c0.6,3.6,0.5,14.7-0.3,24.5l-1.5,17.9l-6.6,8.3l-6.6,8.3L341.8,196l-24.7,15.5l3.5,28.9
	l3.5,28.9l4.3,2.8l4.3,2.8L329.3,275.4L329.3,275.4z M355.3,250c-0.6,0.1-0.5-2.2,0.2-5.1l1.3-5.2l-4.9-16.7l-4.9-16.7l6.3-4.9
	l6.3-4.9l5.7,11.7l5.7,11.7l-1,12.1l-6.8,8.9C359.4,245.8,355.8,249.9,355.3,250L355.3,250z M392.8,206.3l-2.3-10.5l3.4-6.8l3.4-6.8
	l3.6,13.5l3.6,13.5l-4.7,3.9l-4.7,3.9L392.8,206.3L392.8,206.3z M412.5,204l-3.2,0.4l-3.6-12.5c-2-6.9-3.9-15.1-4.2-18.3l-0.6-5.8
	l3.5,3.9c1.9,2.1,5.3,10.2,7.5,17.9l4,14L412.5,204L412.5,204z M261.9,219.7l-3.2,0.4l-0.4-2.9l-0.4-2.9l3.5,1.3
	c1.9,0.7,3.5,1.8,3.6,2.5C265.1,218.7,263.7,219.4,261.9,219.7z M287,202.7l-4.1,0.5l-0.3-2.6c-0.2-1.4,3-6.2,7.1-10.6l7.4-8
	l12.2-1.5l12.2-1.5l3.5-3.8c1.9-2.1,3.4-4.6,3.3-5.7l-0.2-1.9l-12.9,3.1l-12.9,3.1l-5.4-4.6l-5.4-4.6l0.9-6.3l0.9-6.3l-9.1,2.7
	l-9.1,2.7l-10.6-3.2l-10.6-3.2l8.7-15.6c4.8-8.6,13.6-20.9,19.6-27.4L293,96.3l10.9-1.3l10.9-1.3l11.8,4.9l11.8,4.9l3.4,10.4
	l3.4,10.4l-1.7,7.4l-1.7,7.4l-0.9-5.1l-0.9-5.1l-4.8,4.3l-4.8,4.3l3.5,13.9l3.5,13.9l-9.3,9.6c-5.1,5.3-15.4,13.6-23,18.4
	C297.3,198.2,289.3,202.4,287,202.7L287,202.7z M389.6,173.5c-0.8,0.1-1.6-1.1-1.8-2.6l-0.3-2.7l3.4-0.4l3.4-0.4l-1.7,3
	C391.7,171.9,390.3,173.4,389.6,173.5L389.6,173.5z M344.4,157.4l-2.1-3.2l1.2-3.6l1.2-3.6l0.8,6.8l0.8,6.9L344.4,157.4L344.4,157.4
	z M199.9,176.9c-1.3,0.3-2.5-0.6-2.7-2.1c-0.2-1.5,3.1-5.2,7.3-8.2c4.2-3.1,8.5-5,9.4-4.4c1,0.6,1.1,3.2,0.3,5.7l-1.4,4.6l-5.3,1.9
	C204.6,175.4,201.2,176.5,199.9,176.9z M343.5,145.7c-0.9,0.1-1.7-0.4-1.8-1.2c-0.1-0.8,0.6-1.5,1.5-1.6c0.9-0.1,1.7,0.4,1.8,1.2
	C345.1,144.9,344.4,145.6,343.5,145.7L343.5,145.7z M387.2,112.6l-4.3,0.5l1.9-2.1l1.9-2.1l2.4,1.6l2.4,1.6L387.2,112.6L387.2,112.6
	z M316.2,57.3c-0.9,0.1-1.7-0.4-1.8-1.2c-0.1-0.8,0.6-1.5,1.5-1.6c0.9-0.1,1.7,0.4,1.8,1.2C317.8,56.5,317.1,57.2,316.2,57.3z
	 M274.2,47.8l-1.6-2.8l10.7-10.5l10.7-10.5l7.4-0.8l7.4-0.8l-11.4,6.8L285.9,36l-5,7.3l-5,7.3L274.2,47.8L274.2,47.8z M297,45.7
	l-5.2,0.5l8.8-7.8c4.8-4.3,9.5-7.3,10.4-6.8c0.9,0.6-0.7,3.9-3.6,7.3l-5.2,6.2L297,45.7L297,45.7z M525,356.5
	c12-1.7,29.1-4.8,37.9-6.9l16-3.7l-38.2,4.2l-38.2,4.2l0.3,2.7l0.3,2.7L525,356.5z M248.2,390.3c12.5-1.5,27-4.1,32.3-5.7l9.5-3
	l73.5-21.3l-83.6,19.3l-27.2,6.7L88.9,419.4L248.2,390.3L248.2,390.3z M478,356.3l38-6l15.3-2.7l-0.3-2.6l-0.3-2.6l-5.7,0.8
	c-3.1,0.5-20.1,4.3-37.7,8.5l-32,7.7L478,356.3L478,356.3z M438.5,75.7c1.3-0.2,3.1-1.1,4.1-2.1l1.7-1.8l-7.6-9.3l-7.6-9.3l-11-3.8
	c-6-2.1-18.1-4.6-26.8-5.5l-15.9-1.6l0.2,1.9c0.1,1.1,5.9,2.9,12.8,4c6.9,1.1,18.7,4.6,26.1,7.7l13.5,5.6l4.1,7.2
	C434.3,72.8,437.2,75.9,438.5,75.7z"/>
</svg>
